<?xml version="1.0" encoding="UTF-8" standalone="no"?>
<!DOCTYPE svg PUBLIC "-//W3C//DTD SVG 1.1//EN" "http://www.w3.org/Graphics/SVG/1.1/DTD/svg11.dtd">
<svg width="100%" height="100%" viewBox="0 0 68 69" version="1.1" xmlns="http://www.w3.org/2000/svg" xmlns:xlink="http://www.w3.org/1999/xlink" xml:space="preserve" xmlns:serif="http://www.serif.com/" style="fill-rule:evenodd;clip-rule:evenodd;stroke-linejoin:round;stroke-miterlimit:2;">
    <g transform="matrix(1,0,0,1,-736.373,-1194.64)">
        <g transform="matrix(1.07879,0,0,0.601892,-55.0197,564.559)">
            <path d="M740.242,1142.69L740.242,1158.75C740.242,1159.27 740.127,1159.77 739.921,1160.14C739.716,1160.5 739.438,1160.71 739.147,1160.71L737.468,1160.71C737.178,1160.71 736.899,1160.5 736.694,1160.13C736.489,1159.77 736.373,1159.27 736.373,1158.75L736.373,1133.35C737.493,1136.69 738.79,1139.82 740.242,1142.69Z" style="fill:rgb(26,129,196);"/>
        </g>
        <g transform="matrix(-1.07879,0,0,0.601892,1595.15,564.559)">
            <path d="M740.242,1142.69C738.79,1139.82 737.493,1136.69 736.373,1133.35L736.373,1158.75C736.373,1159.27 736.489,1159.77 736.694,1160.13C736.899,1160.5 737.178,1160.71 737.468,1160.71L739.147,1160.71C739.438,1160.71 739.716,1160.5 739.921,1160.14C740.127,1159.77 740.242,1159.27 740.242,1158.75L740.242,1142.69Z" style="fill:rgb(26,129,196);"/>
        </g>
        <g transform="matrix(1,0,0,1,0.220649,93.1879)">
            <path d="M769.844,1101.45C788.439,1101.45 803.535,1116.55 803.535,1135.14C803.535,1153.74 788.439,1168.84 769.844,1168.84C751.249,1168.84 736.153,1153.74 736.153,1135.14C736.153,1116.55 751.249,1101.45 769.844,1101.45ZM769.844,1105.62C753.549,1105.62 740.319,1118.85 740.319,1135.14C740.319,1151.44 753.549,1164.67 769.844,1164.67C786.139,1164.67 799.369,1151.44 799.369,1135.14C799.369,1118.85 786.139,1105.62 769.844,1105.62Z" style="fill:rgb(132,132,132);"/>
        </g>
        <g transform="matrix(0.745201,0,0,0.745201,196.376,382.422)">
            <path d="M769.844,1100.74C788.832,1100.74 804.248,1116.16 804.248,1135.14C804.248,1154.13 788.832,1169.55 769.844,1169.55C750.856,1169.55 735.44,1154.13 735.44,1135.14C735.44,1116.16 750.856,1100.74 769.844,1100.74ZM769.844,1106.33C753.942,1106.33 741.032,1119.24 741.032,1135.14C741.032,1151.05 753.942,1163.96 769.844,1163.96C785.746,1163.96 798.656,1151.05 798.656,1135.14C798.656,1119.24 785.746,1106.33 769.844,1106.33Z" style="fill:rgb(132,132,132);"/>
        </g>
        <g transform="matrix(0.495009,0,0,0.495009,388.985,666.426)">
            <path d="M769.844,1099.33C789.612,1099.33 805.661,1115.38 805.661,1135.14C805.661,1154.91 789.612,1170.96 769.844,1170.96C750.076,1170.96 734.027,1154.91 734.027,1135.14C734.027,1115.38 750.076,1099.33 769.844,1099.33ZM769.844,1107.75C754.722,1107.75 742.445,1120.02 742.445,1135.14C742.445,1150.27 754.722,1162.54 769.844,1162.54C784.966,1162.54 797.243,1150.27 797.243,1135.14C797.243,1120.02 784.966,1107.75 769.844,1107.75Z" style="fill:rgb(132,132,132);"/>
        </g>
    </g>
</svg>
